<svg xmlns="http://www.w3.org/2000/svg" xmlns:xlink="http://www.w3.org/1999/xlink" width="25" height="25" version="1.1" viewBox="0 0 25 25"><path fill="#fff" d="M6.25 16.25h-1.25c-0.69 0-1.25 0.559-1.25 1.25s0.56 1.25 1.25 1.25h1.25c0.69 0 1.25-0.559 1.25-1.25s-0.56-1.25-1.25-1.25zM6.25 11.25h-1.25c-0.69 0-1.25 0.56-1.25 1.25s0.56 1.25 1.25 1.25h1.25c0.69 0 1.25-0.56 1.25-1.25s-0.56-1.25-1.25-1.25zM6.25 6.25h-1.25c-0.69 0-1.25 0.56-1.25 1.25s0.56 1.25 1.25 1.25h1.25c0.69 0 1.25-0.56 1.25-1.25s-0.56-1.25-1.25-1.25zM11.25 8.75h8.75c0.691 0 1.25-0.56 1.25-1.25s-0.559-1.25-1.25-1.25h-8.75c-0.69 0-1.25 0.56-1.25 1.25s0.56 1.25 1.25 1.25zM20 11.25h-8.75c-0.69 0-1.25 0.56-1.25 1.25s0.56 1.25 1.25 1.25h8.75c0.691 0 1.25-0.56 1.25-1.25s-0.559-1.25-1.25-1.25zM20 16.25h-8.75c-0.69 0-1.25 0.559-1.25 1.25s0.56 1.25 1.25 1.25h8.75c0.691 0 1.25-0.559 1.25-1.25s-0.559-1.25-1.25-1.25z"/></svg>